<svg xmlns="http://www.w3.org/2000/svg" xmlns:xlink="http://www.w3.org/1999/xlink" width="1000" zoomAndPan="magnify" viewBox="0 0 750 749.999995" height="1000" preserveAspectRatio="xMidYMid meet" version="1.0"><defs><clipPath id="83146dc9b5"><path d="M 140.773438 141.226562 L 608.023438 141.226562 L 608.023438 608.476562 L 140.773438 608.476562 Z M 140.773438 141.226562 " clip-rule="nonzero"/></clipPath></defs><rect x="-75" width="900" fill="#ffffff" y="-74.999999" height="899.999994" fill-opacity="1"/><rect x="-75" width="900" fill="#1c1b1b" y="-74.999999" height="899.999994" fill-opacity="1"/><g clip-path="url(#83146dc9b5)"><path fill="#47c4d3" d="M 374.546875 141.226562 C 439.113281 141.226562 497.558594 167.40625 539.824219 209.671875 C 582.136719 251.984375 608.316406 310.429688 608.316406 374.996094 C 608.316406 439.5625 582.136719 498.007812 539.871094 540.273438 C 497.558594 582.585938 439.113281 608.769531 374.546875 608.769531 C 309.980469 608.769531 251.535156 582.585938 209.222656 540.273438 C 166.957031 498.007812 140.773438 439.5625 140.773438 374.996094 C 140.773438 310.429688 166.957031 251.984375 209.222656 209.671875 C 251.535156 167.40625 309.980469 141.226562 374.546875 141.226562 Z M 374.546875 219.679688 C 382.308594 219.679688 388.574219 225.945312 388.574219 233.703125 C 388.574219 239.410156 385.160156 244.316406 380.25 246.515625 L 380.25 280.507812 L 492.835938 280.507812 L 492.835938 325.203125 L 516.914062 325.203125 L 516.914062 402.253906 L 492.835938 402.253906 L 492.835938 446.953125 L 452.71875 446.953125 L 538.886719 479.257812 L 541.414062 501.511719 C 568.109375 466.355469 583.957031 422.5 583.957031 374.949219 C 583.957031 317.113281 560.535156 264.75 522.617188 226.832031 C 484.746094 189.007812 432.382812 165.539062 374.546875 165.539062 C 316.710938 165.539062 264.347656 188.960938 226.429688 226.878906 C 188.558594 264.796875 165.085938 317.160156 165.085938 374.996094 C 165.085938 422.546875 180.9375 466.402344 207.632812 501.558594 L 210.160156 479.304688 L 296.375 447 L 256.257812 447 L 256.257812 402.300781 L 232.179688 402.300781 L 232.179688 325.203125 L 256.257812 325.203125 L 256.257812 280.507812 L 368.796875 280.507812 L 368.796875 246.515625 C 363.886719 244.316406 360.472656 239.410156 360.472656 233.703125 C 360.519531 225.992188 366.785156 219.679688 374.546875 219.679688 Z M 425.367188 333.480469 C 411.902344 333.480469 401.007812 344.371094 401.007812 357.835938 C 401.007812 371.304688 411.902344 382.195312 425.367188 382.195312 C 438.832031 382.195312 449.726562 371.304688 449.726562 357.835938 C 449.726562 344.417969 438.785156 333.480469 425.367188 333.480469 Z M 323.722656 333.480469 C 337.191406 333.480469 348.082031 344.371094 348.082031 357.835938 C 348.082031 371.304688 337.191406 382.195312 323.722656 382.195312 C 310.257812 382.195312 299.367188 371.304688 299.367188 357.835938 C 299.367188 344.417969 310.304688 333.480469 323.722656 333.480469 Z M 323.722656 333.480469 " fill-opacity="1" fill-rule="evenodd"/></g></svg>